<svg width="249" height="250" xmlns="http://www.w3.org/2000/svg">

 <g>
  <title>background</title>
  <rect fill="none" id="canvas_background" height="252" width="251" y="-1" x="-1"/>
 </g>
 <g>
  <title>Layer 1</title>
  <path stroke="null" id="svg_1" d="m231.579873,229.265227c0,0 0,-14.703766 -1.1789,-22.389825c-0.964555,-6.070873 -9.056096,-14.091109 -43.458546,-27.235384c-33.866586,-12.921491 -31.776717,-6.627834 -31.776717,-30.410061c0,-15.427815 7.555678,-6.460746 12.378451,-35.756885c1.875523,-11.529089 3.375941,-3.84303 7.448505,-22.334129c2.143455,-9.691118 -1.446832,-10.415167 -1.018141,-15.037942c0.428691,-4.622775 0.857382,-8.744285 1.661177,-18.212619c0.964555,-11.696177 -9.484787,-42.496111 -46.94166,-42.496111c-37.456872,0 -47.906215,30.799933 -46.888074,42.551807c0.803796,9.412638 1.232487,13.589844 1.661177,18.212619c0.428691,4.622775 -3.161596,5.346824 -1.018141,15.037942c4.072564,18.435403 5.572982,10.749344 7.448505,22.334129c4.822773,29.296139 12.378451,20.32907 12.378451,35.756885c0,23.837923 2.089868,17.544266 -31.776717,30.410061c-34.402449,13.088579 -42.547578,21.164511 -43.458546,27.235384c-1.232487,7.630363 -1.232487,22.334129 -1.232487,22.334129l102.88583,0l102.88583,0z"/>
 </g>
</svg>