<svg width="120" height="121" xmlns="http://www.w3.org/2000/svg">

 <g>
  <title>background</title>
  <rect fill="none" id="canvas_background" height="123" width="122" y="-1" x="-1"/>
 </g>
 <g>
  <title>Layer 1</title>
  <path stroke="null" id="svg_1" d="m111.217873,111.217883c0,0 0,-7.065408 -0.555631,-10.75869c-0.454607,-2.917157 -4.268259,-6.771016 -20.482593,-13.087063c-15.961774,-6.208995 -14.976791,-3.184786 -14.976791,-14.612549c0,-7.413326 3.561092,-3.104498 5.834129,-17.181788c0.883959,-5.539922 1.591126,-1.846641 3.51058,-10.731927c1.010239,-4.656746 -0.681911,-5.004664 -0.479863,-7.225986c0.202048,-2.221322 0.404096,-4.201777 0.782935,-8.751472c0.454607,-5.620211 -4.470307,-20.420101 -22.124231,-20.420101c-17.653924,0 -22.578838,14.799889 -22.098975,20.446863c0.37884,4.522932 0.580887,6.53015 0.782935,8.751472c0.202048,2.221322 -1.490102,2.569239 -0.479863,7.225986c1.919454,8.858523 2.626621,5.165242 3.51058,10.731927c2.273037,14.077291 5.834129,9.768462 5.834129,17.181788c0,11.454526 0.984983,8.430317 -14.976791,14.612549c-16.214333,6.289284 -20.053241,10.169906 -20.482593,13.087063c-0.580887,3.666519 -0.580887,10.731927 -0.580887,10.731927l48.491464,0l48.491464,0z"/>
 </g>
</svg>