<svg width="146" height="65" xmlns="http://www.w3.org/2000/svg">

 <g>
  <title>background</title>
  <rect fill="none" id="canvas_background" height="67" width="148" y="-1" x="-1"/>
 </g>
 <g>
  <title>Layer 1</title>
  <polygon stroke="null" fill="#374049" id="svg_3" points="137.06907653808594,22.544273167848587 128.43003845214844,22.544273167848587 122.38272857666016,22.544273167848587 84.54379272460938,22.544273167848587 73.31305694580078,17.39115884900093 73.31305694580078,8.773031026124954 67.26573944091797,8.773031026124954 67.26573944091797,14.548068791627884 46.4456787109375,4.952619820833206 5.0647382736206055,24.14351060986519 7.570055961608887,29.74085596203804 14.654059410095215,26.453531056642532 14.654059410095215,58.97142007946968 49.29656219482422,58.97142007946968 49.29656219482422,42.979018956422806 43.24924087524414,42.979018956422806 43.24924087524414,52.75215509533882 20.701377868652344,52.75215509533882 20.701377868652344,23.69927766919136 46.4456787109375,11.793822079896927 83.24793243408203,28.763543874025345 122.38272857666016,28.763543874025345 122.38272857666016,36.759746342897415 128.43003845214844,36.759746342897415 128.43003845214844,28.763543874025345 137.06907653808594,28.763543874025345 "/>
  <polygon stroke="null" fill="#374049" id="svg_4" points="93.11548614501953,54.25695016980171 52.41482925415039,54.25695016980171 52.41482925415039,58.971416264772415 99.40476989746094,58.971416264772415 99.40476989746094,51.56295374035835 122.13602447509766,51.56295374035835 122.13602447509766,58.971416264772415 128.42530822753906,58.971416264772415 128.42530822753906,46.84846857190132 93.11548614501953,46.84846857190132 "/>
 </g>
</svg>